<?xml version="1.0" standalone="no"?>
<!DOCTYPE svg PUBLIC "-//W3C//DTD SVG 20010904//EN"
 "http://www.w3.org/TR/2001/REC-SVG-20010904/DTD/svg10.dtd">
<svg version="1.0" xmlns="http://www.w3.org/2000/svg"
 width="272.000000pt" height="272.000000pt" viewBox="0 0 272.000000 272.000000"
 preserveAspectRatio="xMidYMid meet">
<metadata>
Created by potrace 1.11, written by Peter Selinger 2001-2013
</metadata>
<g transform="translate(0.000000,272.000000) scale(0.100000,-0.100000)"
fill="#000000" stroke="none">
<path d="M419 2462 c-4 -22 -3 -1112 1 -1113 3 -1 47 -2 98 -3 l92 -2 1 46 c0
25 1 136 1 248 0 181 2 202 16 203 10 0 123 1 252 2 l235 2 0 80 0 80 -250 0
-250 0 -1 143 c-1 97 2 142 10 143 6 1 135 2 286 3 l275 1 3 87 3 88 -386 -1
c-212 0 -386 -3 -386 -7z"/>
<path d="M1469 1338 c0 -13 -1 -265 -2 -560 -2 -472 0 -538 13 -539 74 -4 567
-1 607 5 98 12 190 53 240 107 38 42 66 119 69 188 4 139 -49 237 -153 283
l-44 19 38 28 c81 59 113 126 109 223 -5 115 -54 189 -155 237 l-56 26 -332 3
-333 3 -1 -23z m614 -161 c41 -27 60 -64 63 -120 2 -67 -22 -116 -72 -144 -36
-19 -55 -21 -224 -22 l-185 -2 0 154 0 155 196 -2 c167 -1 199 -4 222 -19z
m26 -452 c62 -29 91 -83 87 -161 -4 -70 -31 -114 -86 -142 -43 -21 -54 -22
-245 -20 l-200 3 0 150 c0 83 1 160 3 172 4 22 6 22 198 21 179 -1 198 -3 243
-23z"/>
<path d="M411 890 c-4 -3 -7 -41 -6 -85 l0 -80 388 -1 c213 -1 387 1 388 5 4
30 3 135 -2 149 -5 15 -37 17 -383 17 -208 0 -381 -2 -385 -5z"/>
</g>
</svg>
