<?xml version="1.0" standalone="no"?>
<!DOCTYPE svg PUBLIC "-//W3C//DTD SVG 20010904//EN"
 "http://www.w3.org/TR/2001/REC-SVG-20010904/DTD/svg10.dtd">
<svg version="1.0" xmlns="http://www.w3.org/2000/svg"
 width="261.000000pt" height="261.000000pt" viewBox="0 0 261.000000 261.000000"
 preserveAspectRatio="xMidYMid meet">
<metadata>
Created by potrace 1.11, written by Peter Selinger 2001-2013
</metadata>
<g transform="translate(0.000000,261.000000) scale(0.100000,-0.100000)"
fill="#000000" stroke="none">
<path d="M1125 2594 c-572 -84 -1004 -502 -1106 -1069 -13 -74 -17 -139 -14
-250 3 -137 9 -183 43 -325 13 -54 82 -221 108 -262 13 -21 24 -40 24 -43 0
-6 51 -86 60 -95 3 -3 18 -23 34 -45 50 -69 209 -219 287 -270 191 -126 397
-203 599 -223 339 -33 658 55 924 255 212 160 376 391 455 642 17 53 32 107
35 121 13 78 16 99 21 135 7 52 7 227 0 285 -6 46 -20 124 -31 170 -3 14 -8
37 -11 53 -3 15 -9 30 -14 33 -5 3 -9 14 -9 25 0 10 -4 27 -9 37 -6 9 -26 53
-47 97 -153 331 -473 600 -828 695 -164 44 -366 57 -521 34z"/>
</g>
</svg>
